<?xml version="1.0" standalone="no"?>
<!DOCTYPE svg PUBLIC "-//W3C//DTD SVG 20010904//EN"
 "http://www.w3.org/TR/2001/REC-SVG-20010904/DTD/svg10.dtd">
<svg version="1.0" xmlns="http://www.w3.org/2000/svg"
 width="982.000000pt" height="982.000000pt" viewBox="0 0 982.000000 982.000000"
 preserveAspectRatio="xMidYMid meet">
<metadata>
Created by potrace 1.11, written by Peter Selinger 2001-2013
</metadata>
<g transform="translate(0.000000,982.000000) scale(0.100000,-0.100000)"
fill="#000000" stroke="none">
<path d="M3480 9814 c-425 -53 -809 -246 -1106 -556 -153 -160 -240 -287 -364
-530 l-65 -128 -620 0 c-723 -1 -1066 -11 -1140 -34 -51 -16 -93 -52 -148
-127 l-27 -36 0 -427 0 -426 50 -64 c52 -67 87 -89 167 -108 32 -7 321 -12
885 -15 l837 -4 79 -162 c44 -89 106 -200 137 -247 293 -435 749 -723 1262
-795 169 -24 461 -17 617 14 411 83 771 299 1054 634 103 121 171 229 253 402
l74 155 1185 1 c1489 1 2973 14 3023 27 53 14 126 77 151 131 20 44 21 60 21
456 0 309 -3 419 -13 446 -15 44 -81 112 -131 135 -56 27 -408 33 -2111 35
-844 1 -1669 5 -1832 8 l-298 6 -63 135 c-107 228 -197 357 -373 534 -268 268
-573 435 -938 512 -102 22 -153 26 -326 29 -113 2 -221 1 -240 -1z"/>
<path d="M6000 3679 c-537 -36 -1070 -348 -1368 -798 -43 -65 -113 -185 -155
-269 l-77 -151 -2018 -4 c-2047 -4 -2127 -6 -2229 -41 -28 -9 -52 -31 -90 -80
l-53 -68 0 -427 0 -427 49 -65 c52 -69 73 -82 156 -99 104 -21 752 -29 2442
-30 l1741 0 80 -154 c127 -243 206 -358 352 -510 268 -280 624 -464 1040 -538
113 -20 470 -17 587 5 385 73 694 237 978 522 175 175 252 283 361 503 l85
172 247 1 c136 0 522 4 857 8 494 7 618 11 651 23 59 21 120 74 146 127 23 46
23 50 23 461 0 403 -1 416 -21 461 -15 31 -40 60 -76 88 -51 38 -60 41 -149
50 -52 6 -451 13 -886 17 l-793 7 -84 171 c-46 94 -112 211 -147 260 -74 103
-252 293 -354 376 -281 229 -646 380 -980 405 -160 11 -202 12 -315 4z"/>
</g>
</svg>
